<?xml version="1.0" encoding="UTF-8"?>
<svg xmlns="http://www.w3.org/2000/svg" xmlns:xlink="http://www.w3.org/1999/xlink" viewBox="0 0 30 30" width="30px" height="30px">
<g id="surface21342275">
<path style=" stroke:none;fill-rule:nonzero;fill:rgb(100%,100%,100%);fill-opacity:1;" d="M 25.363281 8.320312 C 24.953125 6.859375 24.144531 5.707031 22.957031 4.890625 C 21.460938 3.855469 19.734375 3.492188 18.246094 3.269531 C 16.1875 2.960938 14.324219 2.917969 12.546875 3.136719 C 10.882812 3.339844 9.628906 3.664062 8.484375 4.191406 C 6.238281 5.222656 4.894531 6.890625 4.484375 9.148438 C 4.28125 10.242188 4.148438 11.234375 4.070312 12.179688 C 3.890625 14.363281 4.054688 16.300781 4.570312 18.089844 C 5.070312 19.839844 5.949219 21.085938 7.253906 21.90625 C 7.585938 22.117188 8.011719 22.265625 8.421875 22.414062 C 8.628906 22.484375 8.828125 22.558594 9 22.632812 L 9 26.164062 C 9 26.625 9.375 27 9.835938 27 C 10.054688 27 10.261719 26.914062 10.417969 26.761719 L 13.675781 23.59375 C 13.816406 23.433594 13.816406 23.433594 13.964844 23.429688 C 15.078125 23.40625 16.214844 23.363281 17.34375 23.304688 C 18.714844 23.230469 20.300781 23.097656 21.792969 22.472656 C 23.160156 21.902344 24.15625 20.996094 24.757812 19.78125 C 25.382812 18.515625 25.753906 17.140625 25.894531 15.582031 C 26.136719 12.84375 25.964844 10.46875 25.363281 8.320312 Z M 19.691406 18.738281 C 19.363281 19.273438 18.875 19.644531 18.296875 19.886719 C 17.878906 20.0625 17.445312 20.023438 17.03125 19.847656 C 13.546875 18.375 10.816406 16.050781 9.011719 12.710938 C 8.640625 12.023438 8.378906 11.273438 8.082031 10.546875 C 8.023438 10.398438 8.027344 10.222656 8 10.058594 C 8.027344 8.882812 8.925781 8.222656 9.835938 8.023438 C 10.183594 7.945312 10.492188 8.070312 10.75 8.316406 C 11.464844 8.996094 12.03125 9.789062 12.453125 10.675781 C 12.640625 11.0625 12.558594 11.40625 12.238281 11.695312 C 12.175781 11.757812 12.105469 11.8125 12.035156 11.863281 C 11.3125 12.410156 11.207031 12.820312 11.589844 13.640625 C 12.246094 15.03125 13.335938 15.96875 14.746094 16.546875 C 15.117188 16.699219 15.464844 16.625 15.75 16.324219 C 15.789062 16.28125 15.832031 16.242188 15.859375 16.199219 C 16.414062 15.269531 17.21875 15.363281 17.964844 15.890625 C 18.453125 16.238281 18.925781 16.605469 19.410156 16.960938 C 20.144531 17.5 20.140625 18.007812 19.691406 18.738281 Z M 15.511719 9.144531 C 15.324219 9.144531 15.136719 9.15625 14.953125 9.1875 C 14.640625 9.242188 14.347656 9.03125 14.292969 8.71875 C 14.242188 8.40625 14.453125 8.113281 14.765625 8.0625 C 15.007812 8.019531 15.261719 8 15.511719 8 C 17.984375 8 20 10.015625 20 12.488281 C 20 12.738281 19.980469 12.992188 19.9375 13.238281 C 19.890625 13.515625 19.648438 13.714844 19.375 13.714844 C 19.34375 13.714844 19.3125 13.710938 19.28125 13.707031 C 18.96875 13.652344 18.757812 13.359375 18.8125 13.046875 C 18.84375 12.867188 18.855469 12.679688 18.855469 12.488281 C 18.855469 10.644531 17.355469 9.144531 15.511719 9.144531 Z M 18 12.855469 C 18 13.171875 17.742188 13.429688 17.429688 13.429688 C 17.113281 13.429688 16.859375 13.171875 16.859375 12.855469 C 16.859375 11.910156 16.089844 11.144531 15.144531 11.144531 C 14.828125 11.144531 14.574219 10.886719 14.574219 10.570312 C 14.574219 10.257812 14.828125 10 15.144531 10 C 16.71875 10 18 11.28125 18 12.855469 Z M 21.847656 13.554688 C 21.785156 13.820312 21.550781 14 21.289062 14 C 21.246094 14 21.203125 13.992188 21.160156 13.984375 C 20.855469 13.914062 20.660156 13.609375 20.730469 13.300781 C 20.8125 12.9375 20.855469 12.558594 20.855469 12.183594 C 20.855469 9.402344 18.597656 7.144531 15.816406 7.144531 C 15.4375 7.144531 15.0625 7.183594 14.695312 7.269531 C 14.390625 7.339844 14.082031 7.144531 14.015625 6.835938 C 13.945312 6.527344 14.136719 6.222656 14.445312 6.152344 C 14.894531 6.050781 15.355469 6 15.820312 6 C 19.226562 6 22 8.773438 22 12.179688 C 22 12.644531 21.949219 13.105469 21.847656 13.554688 Z M 21.847656 13.554688 "/>
</g>
</svg>
